# File created by Blade
# Date/Time:  Wed Apr 08 17:24:36 2015
# Frame Rate: 120.000 fps
#------------------------------------------------------
:FULLY-SPECIFIED
:DEGREES
1634
root 8.098391 36.318095 0.329527 369.469855 -84.438788 -342.548024
Spine -27.976558 0.554628 -3.350274
Head -4.576115 13.449140 3.654424
LeftShoulder -5.427222 11.460514 29.888983
LeftArm 12.942129 -38.781149 -35.509125
LeftForeArm 18.027551 -0.000000 2.593402
LeftHand -12.275707 -0.000000 -12.867572
LeftHandThumb1 -26.253704 0.000000 33.147579
RightShoulder -24.864264 -43.423483 -10.584590
RightArm 50.960010 48.429578 56.339397
RightForeArm 9.092894 -0.000000 -2.249619
RightHand -3.752024 0.000000 5.924397
RightHandThumb1 -24.326973 -0.000000 -32.862282
LeftUpLeg -30.468196 11.404667 -0.867920
LeftLeg 14.624408 -0.000000 -0.000000
LeftFoot -9.929879 11.205198 -13.250314
LeftToeBase 6.907713 -0.000000 -0.000000
RightUpLeg -29.003999 -8.220660 -4.393166
RightLeg 12.859468 -0.000000 -0.000000
RightFoot -13.612455 -10.997414 20.933014
RightToeBase 9.963259 -0.000000 -0.000000
1635
root 8.083105 36.320324 0.328856 369.513160 -84.510054 -342.542805
Spine -28.067526 0.522934 -3.314749
Head -4.557083 13.366675 3.702480
LeftShoulder -5.460549 11.479333 29.880994
LeftArm 13.031611 -38.787365 -35.572101
LeftForeArm 17.978892 0.000000 2.604183
LeftHand -12.293493 0.000000 -12.880468
LeftHandThumb1 -26.253704 0.000000 33.147579
RightShoulder -24.798172 -43.384873 -10.656954
RightArm 50.983764 48.365982 56.289781
RightForeArm 9.081970 0.000000 -2.228310
RightHand -3.745025 0.000000 5.993714
RightHandThumb1 -24.326973 -0.000000 -32.862282
LeftUpLeg -30.475472 11.467670 -0.878122
LeftLeg 14.604321 -0.000000 -0.000000
LeftFoot -9.936451 11.229177 -13.266375
LeftToeBase 6.914905 -0.000000 -0.000000
RightUpLeg -29.038812 -8.242778 -4.356523
RightLeg 12.839221 -0.000000 -0.000000
RightFoot -13.568802 -10.946518 20.902519
RightToeBase 9.938644 -0.000000 -0.000000
1636
root 8.069970 36.321680 0.329209 369.561080 -84.586279 -342.559636
Spine -28.136878 0.534501 -3.297051
Head -4.523414 13.222366 3.753040
LeftShoulder -5.444280 11.488512 29.886903
LeftArm 13.106203 -38.795407 -35.616187
LeftForeArm 18.108779 -0.000000 2.608738
LeftHand -12.239685 -0.000000 -13.023435
LeftHandThumb1 -26.253704 0.000000 33.147579
RightShoulder -24.752644 -43.374249 -10.706517
RightArm 51.017366 48.350515 56.281039
RightForeArm 9.059825 0.000000 -2.220944
RightHand -3.737489 -0.000000 6.067677
RightHandThumb1 -24.326973 -0.000000 -32.862282
LeftUpLeg -30.477252 11.526539 -0.884011
LeftLeg 14.601617 -0.000000 -0.000000
LeftFoot -9.960933 11.267267 -13.259953
LeftToeBase 6.948556 -0.000000 -0.000000
RightUpLeg -29.059731 -8.245133 -4.328527
RightLeg 12.820230 -0.000000 -0.000000
RightFoot -13.528310 -10.912259 20.853660
RightToeBase 9.982669 -0.000000 -0.000000
1637
root 8.056960 36.321912 0.330956 369.544917 -84.648178 -342.534343
Spine -28.170141 0.524637 -3.270535
Head -4.504405 13.078801 3.785273
LeftShoulder -5.439396 11.460249 29.895860
LeftArm 13.163592 -38.822648 -35.692291
LeftForeArm 18.121239 -0.000000 2.636370
LeftHand -12.261880 -0.000000 -13.059706
LeftHandThumb1 -26.253704 0.000000 33.147579
RightShoulder -24.695358 -43.344647 -10.765840
RightArm 51.048205 48.340181 56.261750
RightForeArm 9.027552 -0.000000 -2.233465
RightHand -3.688997 -0.000000 6.105460
RightHandThumb1 -24.326973 -0.000000 -32.862282
LeftUpLeg -30.462097 11.547866 -0.876523
LeftLeg 14.613255 -0.000000 -0.000000
LeftFoot -9.992984 11.306224 -13.308486
LeftToeBase 6.942708 -0.000000 -0.000000
RightUpLeg -29.052217 -8.252049 -4.313341
RightLeg 12.800112 -0.000000 -0.000000
RightFoot -13.496208 -10.862976 20.828395
RightToeBase 9.971946 -0.000000 -0.000000
1638
root 8.045591 36.322401 0.332594 369.553457 -84.708109 -342.531628
Spine -28.201094 0.524378 -3.250888
Head -4.485429 12.934870 3.821617
LeftShoulder -5.417371 11.426295 29.921317
LeftArm 13.205248 -38.726896 -35.719153
LeftForeArm 18.176618 -0.000000 2.606494
LeftHand -12.187874 -0.000000 -13.096966
LeftHandThumb1 -26.253704 0.000000 33.147579
RightShoulder -24.642137 -43.322287 -10.813656
RightArm 51.050751 48.336234 56.223224
RightForeArm 9.001252 -0.000000 -2.236577
RightHand -3.665700 0.000000 6.167319
RightHandThumb1 -24.326973 -0.000000 -32.862282
LeftUpLeg -30.460653 11.568605 -0.870605
LeftLeg 14.639130 -0.000000 -0.000000
LeftFoot -10.021493 11.355040 -13.349988
LeftToeBase 6.890257 -0.000000 -0.000000
RightUpLeg -29.049437 -8.236321 -4.306947
RightLeg 12.782985 -0.000000 -0.000000
RightFoot -13.481012 -10.831184 20.851816
RightToeBase 9.979545 -0.000000 -0.000000
1639
root 8.035019 36.322943 0.335757 369.470651 -84.770635 -342.436189
Spine -28.226062 0.533105 -3.245190
Head -4.476256 12.760968 3.857240
LeftShoulder -5.400254 11.437952 29.931393
LeftArm 13.300390 -38.712772 -35.781209
LeftForeArm 18.094992 -0.000000 2.600048
LeftHand -12.151805 -0.000000 -13.176578
LeftHandThumb1 -26.253704 0.000000 33.147579
RightShoulder -24.591985 -43.291104 -10.858142
RightArm 51.021421 48.325730 56.160388
RightForeArm 8.997318 -0.000000 -2.244170
RightHand -3.631931 0.000000 6.176206
RightHandThumb1 -24.326973 -0.000000 -32.862282
LeftUpLeg -30.465842 11.584380 -0.875534
LeftLeg 14.676623 -0.000000 -0.000000
LeftFoot -10.057017 11.412215 -13.368432
LeftToeBase 6.899831 -0.000000 -0.000000
RightUpLeg -29.047631 -8.202868 -4.316489
RightLeg 12.763623 -0.000000 -0.000000
RightFoot -13.471771 -10.825963 20.846938
RightToeBase 10.009413 -0.000000 -0.000000
1640
root 8.024563 36.322815 0.338606 369.433723 -84.818312 -342.396938
Spine -28.233166 0.532504 -3.232871
Head -4.462018 12.569896 3.883661
LeftShoulder -5.357090 11.413681 29.934986
LeftArm 13.315872 -38.736500 -35.781038
LeftForeArm 18.223245 -0.000000 2.614964
LeftHand -12.090332 -0.000000 -13.283157
LeftHandThumb1 -26.253704 0.000000 33.147579
RightShoulder -24.543665 -43.267166 -10.895822
RightArm 50.988367 48.327834 56.101996
RightForeArm 8.994173 0.000000 -2.242888
RightHand -3.639034 -0.000000 6.178451
RightHandThumb1 -24.326973 -0.000000 -32.862282
LeftUpLeg -30.461887 11.570572 -0.861488
LeftLeg 14.717296 -0.000000 -0.000000
LeftFoot -10.099813 11.465682 -13.421897
LeftToeBase 6.881297 -0.000000 -0.000000
RightUpLeg -29.042574 -8.207440 -4.309817
RightLeg 12.762923 -0.000000 -0.000000
RightFoot -13.467297 -10.789610 20.835613
RightToeBase 10.017494 -0.000000 -0.000000
1641
root 8.014911 36.322491 0.342573 369.339430 -84.893180 -342.300602
Spine -28.235514 0.560288 -3.234256
Head -4.455054 12.373130 3.911258
LeftShoulder -5.330013 11.385456 29.963968
LeftArm 13.368822 -38.695492 -35.821593
LeftForeArm 18.257905 -0.000000 2.616270
LeftHand -12.072887 -0.000000 -13.374233
LeftHandThumb1 -26.253704 0.000000 33.147579
RightShoulder -24.520138 -43.261073 -10.906481
RightArm 50.995383 48.342215 56.073725
RightForeArm 8.999354 -0.000000 -2.243755
RightHand -3.638992 0.000000 6.197092
RightHandThumb1 -24.326973 -0.000000 -32.862282
LeftUpLeg -30.460814 11.566935 -0.852546
LeftLeg 14.767830 -0.000000 -0.000000
LeftFoot -10.151356 11.550641 -13.460391
LeftToeBase 6.841021 -0.000000 -0.000000
RightUpLeg -29.036802 -8.152161 -4.326844
RightLeg 12.751142 -0.000000 -0.000000
RightFoot -13.466698 -10.795272 20.858052
RightToeBase 10.013817 -0.000000 -0.000000
1642
root 8.006047 36.321905 0.347902 369.092039 -84.985089 -342.053086
Spine -28.232591 0.613876 -3.264959
Head -4.459846 12.195195 3.956584
LeftShoulder -5.293128 11.379061 29.991601
LeftArm 13.405588 -38.648057 -35.834364
LeftForeArm 18.374991 -0.000000 2.645477
LeftHand -12.018998 -0.000000 -13.567880
LeftHandThumb1 -26.253704 0.000000 33.147579
RightShoulder -24.512857 -43.250513 -10.896116
RightArm 50.966913 48.346138 56.006558
RightForeArm 9.016035 -0.000000 -2.252136
RightHand -3.603334 -0.000000 6.239108
RightHandThumb1 -24.326973 -0.000000 -32.862282
LeftUpLeg -30.466469 11.612921 -0.878059
LeftLeg 14.832858 -0.000000 -0.000000
LeftFoot -10.203726 11.603962 -13.471979
LeftToeBase 6.848657 -0.000000 -0.000000
RightUpLeg -29.038608 -8.064091 -4.368085
RightLeg 12.750251 -0.000000 -0.000000
RightFoot -13.466795 -10.827842 20.847645
RightToeBase 10.018622 -0.000000 -0.000000
1643
root 8.000540 36.322387 0.351103 369.148191 -85.065798 -342.083598
Spine -28.249467 0.645276 -3.252230
Head -4.464281 12.052114 3.979274
LeftShoulder -5.279844 11.408574 29.976719
LeftArm 13.499266 -38.679119 -35.846629
LeftForeArm 18.459346 -0.000000 2.599468
LeftHand -11.847727 -0.000000 -13.670964
LeftHandThumb1 -26.253704 0.000000 33.147579
RightShoulder -24.488493 -43.239740 -10.912104
RightArm 50.953999 48.344542 55.958582
RightForeArm 9.041390 -0.000000 -2.246275
RightHand -3.629564 -0.000000 6.257862
RightHandThumb1 -24.326973 -0.000000 -32.862282
LeftUpLeg -30.534593 11.670130 -0.887520
LeftLeg 14.945490 -0.000000 -0.000000
LeftFoot -10.246520 11.626641 -13.486020
LeftToeBase 6.815378 -0.000000 -0.000000
RightUpLeg -28.997656 -7.780336 -4.465440
RightLeg 12.636720 -0.000000 -0.000000
RightFoot -13.506580 -11.035193 20.963189
RightToeBase 10.036828 -0.000000 -0.000000
1644
root 7.994707 36.321377 0.357525 369.029230 -85.137777 -341.959656
Spine -28.233117 0.662723 -3.240319
Head -4.496924 11.931049 3.991042
LeftShoulder -5.250748 11.416604 30.001343
LeftArm 13.526265 -38.674342 -35.890381
LeftForeArm 18.401231 -0.000000 2.630042
LeftHand -11.928273 -0.000000 -13.628144
LeftHandThumb1 -26.253704 0.000000 33.147579
RightShoulder -24.478101 -43.232927 -10.925813
RightArm 50.981047 48.346109 55.943637
RightForeArm 9.045698 -0.000000 -2.235168
RightHand -3.603250 -0.000000 6.261381
RightHandThumb1 -24.326973 -0.000000 -32.862282
LeftUpLeg -30.581699 11.709745 -0.907356
LeftLeg 15.066255 -0.000000 -0.000000
LeftFoot -10.301840 11.648772 -13.508426
LeftToeBase 6.774174 -0.000000 -0.000000
RightUpLeg -29.010548 -7.719054 -4.491879
RightLeg 12.645262 -0.000000 -0.000000
RightFoot -13.507443 -11.044625 20.979635
RightToeBase 10.002491 -0.000000 -0.000000
1645
root 7.989059 36.320177 0.362600 368.936816 -85.203039 -341.866175
Spine -28.201839 0.671981 -3.235366
Head -4.553110 11.822048 4.005273
LeftShoulder -5.226140 11.392128 30.022659
LeftArm 13.517707 -38.647644 -35.884842
LeftForeArm 18.373548 -0.000000 2.646068
LeftHand -11.922519 -0.000000 -13.709938
LeftHandThumb1 -26.253704 0.000000 33.147579
RightShoulder -24.480157 -43.223792 -10.918852
RightArm 51.007500 48.348180 55.928901
RightForeArm 9.043748 -0.000000 -2.222018
RightHand -3.561199 0.000000 6.306768
RightHandThumb1 -24.326973 -0.000000 -32.862282
LeftUpLeg -30.602744 11.699180 -0.904554
LeftLeg 15.144401 -0.000000 -0.000000
LeftFoot -10.368922 11.739598 -13.529748
LeftToeBase 6.788223 -0.000000 -0.000000
RightUpLeg -29.027082 -7.665295 -4.511473
RightLeg 12.667759 -0.000000 -0.000000
RightFoot -13.514543 -11.063186 20.985629
RightToeBase 10.019961 -0.000000 -0.000000
